<svg width="388" height="425" viewBox="0 0 388 425" fill="none" xmlns="http://www.w3.org/2000/svg">
<path d="M365.606 80.6969H322.788L303.025 116.928L322.788 153.159H365.606L385.369 116.928L365.606 80.6969Z" fill="#003D57"/>
<path d="M279.969 39.525H243.737L227.269 69.1688L243.737 100.459H279.969L298.084 69.1688L279.969 39.525Z" fill="#006086"/>
<path d="M278.322 131.75H243.737L225.622 161.394L243.737 192.684H278.322L296.437 161.394L278.322 131.75Z" fill="#006086"/>
<path d="M278.322 222.328H243.737L225.622 251.972L243.737 283.262H278.322L296.437 251.972L278.322 222.328Z" fill="#006086"/>
<path d="M200.919 265.147H164.688L148.219 296.438L164.688 326.081H200.919L217.387 296.438L200.919 265.147Z" fill="#0086B9"/>
<path d="M123.516 312.906H88.9312L70.8156 342.55L88.9312 373.841H123.516L141.631 342.55L123.516 312.906Z" fill="#00ADEE"/>
<path d="M172.922 0L156.453 26.35L172.922 52.7H202.566L217.387 26.35L202.566 0H172.922Z" fill="#0086B9"/>
<path d="M197.625 90.5781H167.981L151.513 116.928L167.981 143.278H197.625L212.447 116.928L197.625 90.5781Z" fill="#0086B9"/>
<path d="M197.625 181.156H167.981L151.513 207.506L167.981 233.856H197.625L212.447 207.506L197.625 181.156Z" fill="#0086B9"/>
<path d="M120.222 225.622H88.9312L74.1094 251.972L88.9312 278.322H120.222L135.044 251.972L120.222 225.622Z" fill="#00ADEE"/>
<path d="M46.1125 271.734H14.8219L0 298.084L14.8219 324.434H46.1125L60.9344 298.084L46.1125 271.734Z" fill="#90F0FF"/>
<path d="M121.869 51.0531H98.8125L85.6375 70.8156L98.8125 92.225H121.869L135.044 70.8156L121.869 51.0531Z" fill="#00ADEE"/>
<path d="M120.222 135.044H92.225L77.4031 159.747L92.225 184.45H120.222L133.397 159.747L120.222 135.044Z" fill="#00ADEE"/>
<path d="M42.8187 186.097H18.1156L6.58749 207.506L18.1156 228.916H42.8187L54.3469 207.506L42.8187 186.097Z" fill="#90F0FF"/>
<path d="M47.7594 100.459H23.0563L11.5281 120.222L23.0563 141.631H47.7594L59.2875 120.222L47.7594 100.459Z" fill="#90F0FF"/>
<path d="M363.959 171.275H322.788L303.025 207.506L322.788 243.737H363.959L385.369 207.506L363.959 171.275Z" fill="#003D57"/>
<path d="M365.606 261.853H324.434L303.025 298.084L324.434 334.316H365.606L387.016 298.084L365.606 261.853Z" fill="#003D57"/>
<path d="M286.556 307.966H245.384L223.975 342.55L245.384 378.781H286.556L307.966 342.55L286.556 307.966Z" fill="#006086"/>
<path d="M207.506 352.431H166.334L144.925 388.663L166.334 424.894H207.506L228.916 388.663L207.506 352.431Z" fill="#0086B9"/>
</svg>
