<?xml version="1.0" encoding="UTF-8" standalone="no"?>
<svg
   xmlns:dc="http://purl.org/dc/elements/1.1/"
   xmlns:cc="http://creativecommons.org/ns#"
   xmlns:rdf="http://www.w3.org/1999/02/22-rdf-syntax-ns#"
   xmlns:svg="http://www.w3.org/2000/svg"
   xmlns="http://www.w3.org/2000/svg"
   xmlns:sodipodi="http://sodipodi.sourceforge.net/DTD/sodipodi-0.dtd"
   xmlns:inkscape="http://www.inkscape.org/namespaces/inkscape"
   width="117.33585mm"
   height="117.33585mm"
   viewBox="0 0 117.33585 117.33585"
   version="1.1"
   id="svg8"
   sodipodi:docname="geolytix_icon.svg"
   inkscape:version="1.0.1 (0767f8302a, 2020-10-17)"
   inkscape:export-filename="/home/dennis/Documents/geolytix_icon.png"
   inkscape:export-xdpi="150"
   inkscape:export-ydpi="150">
  <defs
     id="defs2">
    <inkscape:perspective
       sodipodi:type="inkscape:persp3d"
       inkscape:vp_x="41.207376 : -19.19892 : 1"
       inkscape:vp_y="-223.04745 : 853.8643 : 1"
       inkscape:vp_z="62.268724 : -69.217136 : 0"
       inkscape:persp3d-origin="130.42737 : -81.579666 : 1"
       id="perspective899" />
  </defs>
  <sodipodi:namedview
     id="base"
     pagecolor="#ffffff"
     bordercolor="#666666"
     borderopacity="1.0"
     inkscape:pageopacity="0.0"
     inkscape:pageshadow="2"
     inkscape:zoom="1.5142215"
     inkscape:cx="222.88173"
     inkscape:cy="211.73893"
     inkscape:document-units="mm"
     inkscape:current-layer="layer1"
     inkscape:document-rotation="0"
     showgrid="false"
     inkscape:window-width="1439"
     inkscape:window-height="1016"
     inkscape:window-x="110"
     inkscape:window-y="27"
     inkscape:window-maximized="0"
     inkscape:lockguides="true"
     fit-margin-top="0"
     fit-margin-left="0"
     fit-margin-right="0"
     fit-margin-bottom="0" />
  <metadata
     id="metadata5">
    <rdf:RDF>
      <cc:Work
         rdf:about="">
        <dc:format>image/svg+xml</dc:format>
        <dc:type
           rdf:resource="http://purl.org/dc/dcmitype/StillImage" />
        <dc:title></dc:title>
      </cc:Work>
    </rdf:RDF>
  </metadata>
  <g
     inkscape:label="Layer 1"
     inkscape:groupmode="layer"
     id="layer1"
     transform="translate(-41.943493,-86.427902)">
    <path
       id="rect933-3-6"
       style="fill:#ec602d;fill-opacity:1;stroke-width:1.82136"
       d="m 50.401533,144.41761 65.244547,-15.45742 34.04863,46.56368 -70.3627,24.20764 z"
       sodipodi:nodetypes="ccccc" />
    <path
       id="rect933-3"
       style="fill:#003d57;fill-opacity:1;stroke-width:1.92735"
       d="m 47.794302,127.53203 69.041818,-16.35707 36.03029,49.27374 -74.457846,25.61656 z"
       sodipodi:nodetypes="ccccc" />
    <path
       id="rect933"
       style="fill:#401505;fill-opacity:1;stroke-width:2.03952"
       d="M 45.466428,108.08872 118.52654,90.779647 156.65383,142.92117 77.862473,170.02865 Z"
       sodipodi:nodetypes="ccccc" />
    <g
       id="g994"
       style="font-style:normal;font-variant:normal;font-weight:bold;font-stretch:normal;font-size:70.5556px;line-height:1.25;font-family:'Mark SC Offc Pro';-inkscape-font-specification:'Mark SC Offc Pro Bold';fill:#ffffff;fill-opacity:1;stroke:none;stroke-width:0.264583"
       transform="rotate(-89.837193,149.29531,83.143508)">
      <g
         id="g998"
         style="fill:#ffffff;fill-opacity:1">
        <g
           id="g1002"
           style="fill:#ffffff;fill-opacity:1">
          <g
             id="g1006"
             style="fill:#ffffff;fill-opacity:1">
            <g
               id="g1122"
               style="fill:#ffffff;fill-opacity:1">
              <g
                 id="g1126"
                 style="fill:#ffffff;fill-opacity:1">
                <g
                   id="g1157"
                   style="fill:#ffffff;fill-opacity:1">
                  <g
                     id="g1190"
                     style="fill:#ffffff;fill-opacity:1">
                    <path
                       d="m 130.009,19.7505 c 1.189,5.3921 1.678,10.5794 1.482,15.5989 -0.169,5.0035 -0.931,9.694 -2.29,14.1014 l -8.203,-4.7858 c 0.977,-2.9518 1.549,-6.069 1.717,-9.3641 0.169,-3.3079 -0.156,-6.7141 -0.979,-10.2354 -0.74,-3.1598 -1.789,-5.852 -3.155,-8.0738 -1.359,-2.2612 -2.95,-3.9698 -4.778,-5.1171 -1.851,-1.1614 -3.883,-1.7079 -6.102,-1.6284 -2.245,0.0804 -4.568,0.8753 -6.967,2.3965 -2.5449,1.614 -4.7029,3.6966 -6.4594,6.2451 -1.7671,2.564 -3.113,5.3922 -4.0302,8.4746 -0.8831,3.1041 -1.3371,6.3234 -1.3617,9.6459 0.0102,3.3261 0.4676,6.5572 1.3661,9.6833 1.676,5.8314 3.9154,9.6758 6.7011,11.5813 2.7587,1.8543 5.9481,1.9452 9.5541,0.3203 l -4.68,-17.4437 7.911,-5.5514 7.803,30.6259 c -0.402,0.3897 -0.809,0.7649 -1.22,1.1258 -0.391,0.345 -0.797,0.6837 -1.218,1.0161 -3.381,2.6671 -6.746,4.3728 -10.099,5.0945 -3.417,0.7353 -6.6545,0.5271 -9.7078,-0.6514 C 92.205,71.59 89.3804,69.4081 86.8291,66.2378 84.2653,63.024 82.1958,58.8679 80.6387,53.7565 79.6122,50.3869 78.8985,46.8706 78.5034,43.2139 78.0795,39.549 77.9676,35.8688 78.1707,32.1823 c 0.2409,-3.6803 0.8146,-7.2985 1.7204,-10.8445 0.9165,-3.5082 2.1495,-6.8138 3.6944,-9.9079 1.5643,-3.09696 3.4347,-5.90802 5.6027,-8.42736 2.1855,-2.476306 4.672,-4.53592 7.4463,-6.17851 3.8455,-2.2765 7.5675,-3.31888 11.1635,-3.15943 3.526,0.15631 6.749,1.32876 9.679,3.48757 2.895,2.103461 5.424,5.11107 7.6,8.99948 2.136,3.8182 3.775,8.35345 4.932,13.59885 z"
                       style="font-style:normal;font-variant:normal;font-weight:bold;font-stretch:normal;font-size:70.5556px;font-family:'Mark SC Offc Pro';-inkscape-font-specification:'Mark SC Offc Pro Bold';fill:#e3d2c1;fill-opacity:1;stroke-width:0.264583"
                       id="path979" />
                  </g>
                </g>
              </g>
            </g>
          </g>
        </g>
      </g>
    </g>
  </g>
</svg>
